<?xml version="1.0" standalone="no"?>
<!DOCTYPE svg PUBLIC "-//W3C//DTD SVG 20010904//EN"
 "http://www.w3.org/TR/2001/REC-SVG-20010904/DTD/svg10.dtd">
<svg version="1.0" xmlns="http://www.w3.org/2000/svg"
 width="237.000000pt" height="150.000000pt" viewBox="0 0 237.000000 150.000000"
 preserveAspectRatio="xMidYMid meet">
<g transform="translate(0.000000,150.000000) scale(0.100000,-0.100000)"
fill="#512BD4" stroke="none">
<path d="M47 1303 c-3 -21 -9 -65 -12 -98 l-7 -60 879 -114 c483 -62 894 -116
913 -120 l34 -7 -29 -11 c-23 -9 -1148 -352 -1748 -532 -32 -10 -59 -21 -59
-25 -3 -20 48 -176 57 -176 15 0 2274 685 2280 692 3 2 2 45 -3 94 -7 83 -9
89 -32 96 -14 4 -518 71 -1120 148 -602 77 -1107 143 -1121 146 -24 5 -27 2
-32 -33z"/>
</g>
</svg>
