<?xml version="1.0" standalone="no"?>
<!DOCTYPE svg PUBLIC "-//W3C//DTD SVG 20010904//EN"
 "http://www.w3.org/TR/2001/REC-SVG-20010904/DTD/svg10.dtd">
<svg version="1.0" xmlns="http://www.w3.org/2000/svg"
 width="244.000000pt" height="244.000000pt" viewBox="0 0 244.000000 244.000000"
 preserveAspectRatio="xMidYMid meet">
<g transform="translate(0.000000,244.000000) scale(0.100000,-0.100000)"
fill="#ac99ea" stroke="none">
<path d="M47 1772 c-3 -20 -9 -64 -12 -97 l-7 -60 758 -99 c1037 -134 1066
-138 1057 -146 -4 -4 -413 -130 -908 -280 -495 -150 -905 -275 -911 -279 -15
-8 36 -181 53 -181 26 0 2288 691 2310 706 35 23 48 58 37 101 -17 66 -16 66
-529 132 -1065 137 -1792 231 -1816 235 -24 5 -27 1 -32 -32z"/>
</g>
</svg>
