<svg viewBox="0 0 500 500" xmlns="http://www.w3.org/2000/svg">
	<defs></defs>
	<path d="M 158.444 264.458 C 162.214 264.249 164.039 252.681 159.073 244.885 C 152.94 235.256 139.569 229.021 144.084 228.782 C 199.102 225.873 404.779 208.996 403.965 210.819 C 402.877 213.256 418.2 223.945 399.344 244.701 C 371.231 275.647 310.294 328.653 296.198 348.864 C 292.154 354.662 293.649 362.076 294.706 363.503 C 311.44 386.108 338.107 407.604 339.63 407.536 C 340.489 407.498 345.78 407.824 351.086 404.926 C 356.728 401.844 362.488 395.416 366.436 391.485 C 374.176 383.779 402.402 362.521 417.132 335.634 C 420.737 329.055 412.674 322.689 403.621 313.908 C 396.461 306.963 388.829 296.289 380.041 289.753 C 373.909 285.193 365.397 285.344 360.049 282.513 C 348.754 276.534 347.391 261.829 345.844 255.455 C 338.392 224.766 399.768 211.818 403.207 211.385 C 404.39 211.236 541.171 348.903 541.171 348.903 C 541.277 348.444 379.479 511.115 378.735 511.115 C 336.564 511.142 264.218 514.451 241.891 514.852 C 241.273 514.863 242.398 510.337 240.376 504.62 C 238.755 500.036 234.492 494.899 230.391 489.822 C 217.341 473.665 194.8 458.137 190.7 457.779 C 181.859 457.009 149.46 492.203 149.46 492.203 L 148.068 489.408 C 143.258 489.087 105.849 444.939 105.849 444.939 L 158.275 394.659 L 218.106 384.144 L 231.148 316.576 L 165.425 330.169 L 135.603 301.709 L 131.975 293.071 L 158.444 264.458 Z" style="stroke: rgba(0, 0, 0, 0); fill-rule: nonzero; paint-order: fill; fill-opacity: 0.22;" transform="matrix(0.707107007504, 0.707107007504, -0.707107007504, 0.707107007504, 366.971119801516, -126.917072988492)"></path>
	<g style="" transform="matrix(1.175823, 0, 0, 1.175823, -46.788185, -7.344074)">
		<rect x="351.206" y="222.458" width="7.718" height="61.509" style="paint-order: fill; stroke: rgba(251, 251, 251, 0); fill: rgb(255, 255, 255);"></rect>
		<path d="M 247.179 149.058 L 253.266 149.058 L 253.266 196.761 L 250.121 194.079 L 247.179 196.9 L 247.179 149.058 Z" style="stroke: rgba(251, 251, 251, 0); fill: rgb(255, 255, 255);"></path>
		<rect x="287.359" y="222.434" width="71.536" height="7.346" style="stroke: rgba(0, 0, 0, 0); fill: rgb(255, 255, 255);"></rect>
		<rect x="139.251" y="222.434" width="71.536" height="7.346" style="stroke: rgba(0, 0, 0, 0); fill: rgb(255, 255, 255);"></rect>
		<rect x="201.617" width="96.766" height="68.785" rx="15" ry="15" style="paint-order: fill; stroke-width: 3.40187px; stroke: rgb(251, 251, 251); fill: rgb(255, 255, 255);" y="81.316"></rect>
		<rect width="96.766" height="68.785" style="stroke-width: 3.40187px; stroke: rgb(251, 251, 251); fill: rgb(255, 255, 255);" y="283.419" rx="15" ry="15" x="96.082"></rect>
		<rect x="307.152" width="96.766" height="68.785" rx="15" ry="15" style="stroke-width: 3.40187px; stroke: rgb(251, 251, 251); fill: rgb(255, 255, 255);" y="283.419"></rect>
		<path d="M 250 193.335 L 298.864 225.402 L 250 257.469 L 201.136 225.402 Z" style="stroke: rgb(251, 251, 251); stroke-width: 3.40187px; fill: rgb(255, 255, 255);"></path>
		<rect x="138.589" y="222.458" width="7.718" height="61.509" style="paint-order: fill; stroke: rgba(251, 251, 251, 0); fill: rgb(255, 255, 255);"></rect>
	</g>
</svg>