<?xml version="1.0" standalone="no"?>
<!DOCTYPE svg PUBLIC "-//W3C//DTD SVG 20010904//EN"
 "http://www.w3.org/TR/2001/REC-SVG-20010904/DTD/svg10.dtd">
<svg version="1.0" xmlns="http://www.w3.org/2000/svg"
 width="281.000000pt" height="178.000000pt" viewBox="0 0 281.000000 178.000000"
 preserveAspectRatio="xMidYMid meet">
<g transform="translate(0.000000,178.000000) scale(0.100000,-0.100000)"
fill="#512BD4" stroke="none">
<path d="M44 1463 c-4 -32 -8 -76 -8 -98 l-1 -40 895 -117 c492 -64 902 -118
910 -118 35 -3 -92 -43 -925 -295 -484 -146 -885 -267 -892 -270 -13 -4 36
-185 51 -185 15 0 2691 812 2699 819 7 7 -49 15 -1648 221 -550 72 -1017 132
-1037 136 l-36 5 -8 -58z"/>
</g>
</svg>
