<svg viewBox="0 0 500 500" xmlns="http://www.w3.org/2000/svg">
  <defs></defs>
  <rect width="500" height="500" fill="#512BD4" style=""></rect>
  <path d="M 154.957 261.889 C 158.727 261.68 159.818 254.516 154.852 246.72 C 148.719 237.091 139.214 229.218 143.729 228.979 C 198.747 226.07 398.448 210.521 399.76 211.789 C 401.678 213.644 418.2 223.945 399.344 244.701 C 371.231 275.647 310.294 328.653 296.198 348.864 C 292.154 354.662 293.649 362.076 294.706 363.503 C 311.44 386.108 338.107 407.604 339.63 407.536 C 340.489 407.498 345.78 407.824 351.086 404.926 C 356.728 401.844 364.688 390.001 368.636 386.07 C 376.376 378.364 395.633 365.567 410.363 338.68 C 413.968 332.101 412.674 322.689 403.621 313.908 C 396.461 306.963 386.883 298.235 378.095 291.699 C 371.963 287.139 365.397 285.344 360.049 282.513 C 348.754 276.534 347.391 261.829 345.844 255.455 C 338.392 224.766 402.468 214.528 402.468 214.528 L 537.315 349.207 C 537.314 349.21 377.661 509.69 376.917 509.69 C 334.746 509.717 259.939 514.655 237.612 515.056 C 236.994 515.067 237.813 510.846 235.791 505.129 C 234.17 500.545 230.824 496.733 226.723 491.656 C 213.673 475.499 194.8 458.137 190.7 457.779 C 181.859 457.009 149.46 492.203 149.46 492.203 L 148.068 489.408 C 143.258 489.087 103.501 446.422 103.501 446.422 L 156.73 393.114 L 212.194 382.877 L 228.509 317.526 L 165.425 330.169 L 135.603 301.709 L 125.827 291.328 L 154.957 261.889 Z" style="stroke: rgba(0, 0, 0, 0); fill-rule: nonzero; paint-order: fill; fill-opacity: 0.22;" transform="matrix(0.707107007504, 0.707107007504, -0.707107007504, 0.707107007504, 366.971119801516, -126.917072988492)"></path>
  <g style="" transform="matrix(1.175823, 0, 0, 1.175823, -46.788185, -7.344074)">
    <rect x="351.206" y="222.458" width="7.718" height="61.509" style="paint-order: fill; stroke: rgba(251, 251, 251, 0); fill: rgb(255, 255, 255);"></rect>
    <path d="M 247.179 149.058 L 253.266 149.058 L 253.266 196.761 L 250.121 194.079 L 247.179 196.9 L 247.179 149.058 Z" style="stroke: rgba(251, 251, 251, 0); fill: rgb(255, 255, 255);"></path>
    <rect x="287.359" y="222.434" width="71.536" height="7.346" style="stroke: rgba(0, 0, 0, 0); fill: rgb(255, 255, 255);"></rect>
    <rect x="139.251" y="222.434" width="71.536" height="7.346" style="stroke: rgba(0, 0, 0, 0); fill: rgb(255, 255, 255);"></rect>
    <rect x="201.617" width="96.766" height="68.785" rx="15" ry="15" style="paint-order: fill; stroke-width: 3.40187px; stroke: rgb(251, 251, 251); fill: rgb(255, 255, 255);" y="81.316"></rect>
    <rect width="96.766" height="68.785" style="stroke-width: 3.40187px; stroke: rgb(251, 251, 251); fill: rgb(255, 255, 255);" y="283.419" rx="15" ry="15" x="96.082"></rect>
    <rect x="307.152" width="96.766" height="68.785" rx="15" ry="15" style="stroke-width: 3.40187px; stroke: rgb(251, 251, 251); fill: rgb(255, 255, 255);" y="283.419"></rect>
    <path d="M 250 193.335 L 298.864 225.402 L 250 257.469 L 201.136 225.402 Z" style="stroke: rgb(251, 251, 251); stroke-width: 3.40187px; fill: rgb(255, 255, 255);"></path>
    <rect x="138.589" y="222.458" width="7.718" height="61.509" style="paint-order: fill; stroke: rgba(251, 251, 251, 0); fill: rgb(255, 255, 255);"></rect>
  </g>
</svg>